# xmcd
#
# Track frame offsets:
#	150
#	38728
#	72724
#	111180
#	148528
#	192815
#	238371
#	280264
#	301775
#
# Disc length: 4174 seconds
#
# Revision: 0
# Processed by: cddbd v1.5.2PL0 Copyright (c) Steve Scherf et al.
# Submitted via: EasyCDDAExtractor 16.1.0.1
#
DISCID=84104c09
DTITLE=Pet Shop Boys - Left To My Own Remixes 2
DYEAR=1900
DGENRE=
TTITLE0=Red Letter Day (Ivy league Paninari Mix)
TTITLE1=Why Don创t We Live Together (Ivy League A.M. Disco Mix)
TTITLE2=Domino Dancing (Ivy League 12" Mix)
TTITLE3=A Man Could get Arrested (Ivy League Arrested In The Suburbs Mix)
TTITLE4=Don创t Drop Bombs ((Ivy League Steno Pad Mix)
TTITLE5=It创s Alright (Ivy League 12" Mix)
TTITLE6=The Boy Who Couldn创t Keep His Clothes On (Ivy League Nob Hill Cinema 
TTITLE6=Mix)
TTITLE7=Left To My Own Devices (Nudelman Ultimate Revox Mix)
TTITLE8=Postscript (Nudelmix Edit)
EXTD=
EXTT0=
EXTT1=
EXTT2=
EXTT3=
EXTT4=
EXTT5=
EXTT6=
EXTT7=
EXTT8=
PLAYORDER=
